<?xml version="1.0" encoding="UTF-8" standalone="no"?>
<svg
   xmlns:dc="http://purl.org/dc/elements/1.1/"
   xmlns:cc="http://creativecommons.org/ns#"
   xmlns:rdf="http://www.w3.org/1999/02/22-rdf-syntax-ns#"
   xmlns:svg="http://www.w3.org/2000/svg"
   xmlns="http://www.w3.org/2000/svg"
   xmlns:sodipodi="http://sodipodi.sourceforge.net/DTD/sodipodi-0.dtd"
   xmlns:inkscape="http://www.inkscape.org/namespaces/inkscape"
   width="400mm"
   height="75mm"
   viewBox="0 0 400 75"
   version="1.1"
   id="svg8"
   inkscape:version="1.0.1 (3bc2e813f5, 2020-09-07)"
   sodipodi:docname="polyauth_logo.svg"
   inkscape:export-filename="C:\Users\asger\Desktop\polyauth - lock.png"
   inkscape:export-xdpi="96"
   inkscape:export-ydpi="96">
  <defs
     id="defs2" />
  <sodipodi:namedview
     id="base"
     pagecolor="#ffffff"
     bordercolor="#666666"
     borderopacity="1.0"
     inkscape:pageopacity="0.0"
     inkscape:pageshadow="2"
     inkscape:zoom="0.49497475"
     inkscape:cx="458.32912"
     inkscape:cy="376.55951"
     inkscape:document-units="mm"
     inkscape:current-layer="layer1"
     inkscape:document-rotation="0"
     showgrid="false"
     inkscape:window-width="1920"
     inkscape:window-height="1017"
     inkscape:window-x="-8"
     inkscape:window-y="-8"
     inkscape:window-maximized="1" />
  <metadata
     id="metadata5">
    <rdf:RDF>
      <cc:Work
         rdf:about="">
        <dc:format>image/svg+xml</dc:format>
        <dc:type
           rdf:resource="http://purl.org/dc/dcmitype/StillImage" />
        <dc:title></dc:title>
      </cc:Work>
    </rdf:RDF>
  </metadata>
  <g
     inkscape:label="Lag 1"
     inkscape:groupmode="layer"
     id="layer1">
    <path
       style="fill:#000000;fill-opacity:0;stroke:#0582ad;stroke-width:5;stroke-linecap:round;stroke-linejoin:round;stroke-miterlimit:4;stroke-dasharray:none;stroke-dashoffset:0;stroke-opacity:1"
       d="M 185.61629,17.584751 209.34911,3.8826013"
       id="path852" />
    <path
       style="fill:#000000;fill-opacity:0;stroke:#0582ad;stroke-width:5;stroke-linecap:round;stroke-linejoin:round;stroke-miterlimit:4;stroke-dasharray:none;stroke-dashoffset:0;stroke-opacity:1"
       d="M 219.33978,3.6335013 243.44996,17.553517"
       id="path14" />
    <path
       style="fill:#000000;fill-opacity:0;stroke:#0582ad;stroke-width:5;stroke-linecap:round;stroke-linejoin:round;stroke-miterlimit:4;stroke-dasharray:none;stroke-dashoffset:0;stroke-opacity:1"
       d="m 247.06048,25.201162 0.0141,16.909048"
       id="path14-3"
       sodipodi:nodetypes="cc" />
    <path
       style="fill:#000000;fill-opacity:0;stroke:#0582ad;stroke-width:5;stroke-linecap:round;stroke-linejoin:round;stroke-miterlimit:4;stroke-dasharray:none;stroke-dashoffset:0;stroke-opacity:1"
       d="m 182.20727,25.201162 0.0141,16.909048"
       id="path14-3-0"
       sodipodi:nodetypes="cc" />
    <path
       style="fill:#000000;fill-opacity:0;stroke:#0582ad;stroke-width:5;stroke-linecap:round;stroke-linejoin:round;stroke-miterlimit:4;stroke-dasharray:none;stroke-dashoffset:0;stroke-opacity:1"
       d="m 247.08874,51.128313 0.0141,20.612744"
       id="path14-3-8"
       sodipodi:nodetypes="cc" />
    <path
       style="fill:#000000;fill-opacity:0;stroke:#0582ad;stroke-width:5;stroke-linecap:round;stroke-linejoin:round;stroke-miterlimit:4;stroke-dasharray:none;stroke-dashoffset:0;stroke-opacity:1"
       d="m 182.23553,51.128313 0.0141,20.612744"
       id="path14-3-0-9"
       sodipodi:nodetypes="cc" />
    <path
       style="fill:#000000;fill-opacity:0;stroke:#0582ad;stroke-width:5;stroke-linecap:round;stroke-linejoin:round;stroke-miterlimit:4;stroke-dasharray:none;stroke-dashoffset:0;stroke-opacity:1"
       d="m 241.84678,46.566035 -54.4403,0.0381"
       id="path14-3-0-9-0"
       sodipodi:nodetypes="cc" />
    <path
       style="fill:#05688b;fill-opacity:1;stroke:#05688b;stroke-width:3.64244;stroke-linecap:round;stroke-linejoin:round;stroke-miterlimit:4;stroke-dasharray:none;stroke-dashoffset:0;stroke-opacity:1"
       d="m 214.07582,58.362857 0.0141,7.020075"
       id="path14-3-0-8"
       sodipodi:nodetypes="cc" />
    <g
       aria-label="POLY"
       id="text840"
       style="font-style:normal;font-weight:normal;font-size:70.5556px;line-height:1.25;font-family:sans-serif;fill:#000000;fill-opacity:1;stroke:none;stroke-width:0.265;stroke-miterlimit:4;stroke-dasharray:none">
      <path
         d="m 4.7548044,72.656647 q -2.8927798,0 -2.8927798,-3.033891 V 25.384393 q 0,-2.963335 2.9633354,-2.963335 h 16.721678 q 8.043339,0 12.276675,3.880558 4.303892,3.880558 4.303892,11.07723 0,7.126115 -4.303892,11.077229 -4.233336,3.880558 -12.276675,3.880558 H 7.6475841 v 17.286123 q 0,3.033891 -2.8927797,3.033891 z M 7.6475841,47.468297 H 20.841482 q 11.571119,0 11.571119,-10.089451 0,-10.160007 -11.571119,-10.160007 H 7.6475841 Z"
         style="font-style:normal;font-variant:normal;font-weight:normal;font-stretch:normal;font-size:70.5556px;font-family:Nunito;-inkscape-font-specification:Nunito;stroke-width:0.265;stroke-miterlimit:4;stroke-dasharray:none"
         id="path863" />
      <path
         d="m 66.843602,72.797758 q -6.91445,0 -12.065009,-3.104446 -5.080003,-3.175002 -7.902227,-8.890006 -2.751669,-5.715004 -2.751669,-13.546676 0,-7.831672 2.751669,-13.546676 2.751668,-5.715004 7.831672,-8.81945 5.150559,-3.104447 12.135564,-3.104447 7.05556,0 12.135563,3.104447 5.150559,3.104446 7.902228,8.81945 2.822224,5.644448 2.822224,13.47612 0,7.831672 -2.822224,13.617232 -2.822224,5.715004 -7.972783,8.890006 -5.080004,3.104446 -12.065008,3.104446 z m 0,-5.150559 q 7.972783,0 12.34723,-5.362226 4.374447,-5.362225 4.374447,-15.028343 0,-9.666118 -4.374447,-14.957788 -4.374447,-5.362226 -12.34723,-5.362226 -7.831672,0 -12.20612,5.362226 -4.374447,5.29167 -4.374447,14.957788 0,9.595562 4.374447,15.028343 4.374448,5.362226 12.20612,5.362226 z"
         style="font-style:normal;font-variant:normal;font-weight:normal;font-stretch:normal;font-size:70.5556px;font-family:Nunito;-inkscape-font-specification:Nunito;stroke-width:0.265;stroke-miterlimit:4;stroke-dasharray:none"
         id="path865" />
      <path
         d="m 103.03851,72.162758 q -2.96334,0 -2.96334,-3.033891 V 25.102171 q 0,-3.033891 2.89278,-3.033891 2.89278,0 2.89278,3.033891 v 41.980583 h 23.14224 q 2.68111,0 2.68111,2.540002 0,2.540002 -2.68111,2.540002 z"
         style="font-style:normal;font-variant:normal;font-weight:normal;font-stretch:normal;font-size:70.5556px;font-family:Nunito;-inkscape-font-specification:Nunito;stroke-width:0.265;stroke-miterlimit:4;stroke-dasharray:none"
         id="path867" />
      <path
         d="m 145.08951,72.656647 q -2.89278,0 -2.89278,-3.104446 V 48.597186 L 125.75728,26.019393 q -0.98778,-1.340556 -0.42334,-2.681112 0.635,-1.411112 2.39889,-1.411112 1.83445,0 3.17501,1.905001 l 14.32278,19.685013 14.25224,-19.685013 q 1.41111,-1.905001 3.175,-1.905001 1.69333,0 2.25778,1.340556 0.56444,1.270001 -0.49389,2.822224 l -16.43946,22.648349 v 20.813903 q 0,3.104446 -2.89278,3.104446 z"
         style="font-style:normal;font-variant:normal;font-weight:normal;font-stretch:normal;font-size:70.5556px;font-family:Nunito;-inkscape-font-specification:Nunito;stroke-width:0.265;stroke-miterlimit:4;stroke-dasharray:none"
         id="path869" />
    </g>
    <g
       aria-label="UTH"
       id="text840-7"
       style="font-style:normal;font-weight:normal;font-size:70.5556px;line-height:1.25;font-family:sans-serif;fill:#05688b;fill-opacity:1;stroke:none;stroke-width:0.264999;stroke-miterlimit:4;stroke-dasharray:none">
      <path
         d="m 283.30171,72.545286 q -9.80722,0 -14.88723,-5.150559 -5.08,-5.221114 -5.08,-15.169454 V 24.638032 q 0,-2.963335 2.89278,-2.963335 2.89278,0 2.89278,2.963335 V 51.94305 q 0,15.451677 14.18167,15.451677 14.04057,0 14.04057,-15.451677 V 24.638032 q 0,-2.963335 2.96334,-2.963335 2.82222,0 2.82222,2.963335 v 27.587241 q 0,9.94834 -5.08,15.169454 -5.00945,5.150559 -14.74613,5.150559 z"
         style="font-style:normal;font-variant:normal;font-weight:normal;font-stretch:normal;font-size:70.5556px;font-family:Nunito;-inkscape-font-specification:Nunito;fill:#05688b;fill-opacity:1;stroke-width:0.264999;stroke-miterlimit:4;stroke-dasharray:none"
         id="path872" />
      <path
         d="m 330.15055,72.404175 q -2.89278,0 -2.89278,-3.033891 v -42.19225 h -15.87501 q -2.68112,0 -2.68112,-2.540002 0,-2.469446 2.68112,-2.469446 h 37.60613 q 2.68112,0 2.68112,2.469446 0,2.540002 -2.68112,2.540002 h -15.87501 v 42.19225 q 0,3.033891 -2.96333,3.033891 z"
         style="font-style:normal;font-variant:normal;font-weight:normal;font-stretch:normal;font-size:70.5556px;font-family:Nunito;-inkscape-font-specification:Nunito;fill:#05688b;fill-opacity:1;stroke-width:0.264999;stroke-miterlimit:4;stroke-dasharray:none"
         id="path874" />
      <path
         d="m 360.41885,72.404175 q -2.89278,0 -2.89278,-3.033891 V 24.708588 q 0,-3.033891 2.89278,-3.033891 2.89278,0 2.89278,3.033891 v 19.473346 h 29.84502 V 24.708588 q 0,-3.033891 2.89278,-3.033891 2.89278,0 2.89278,3.033891 v 44.661696 q 0,3.033891 -2.89278,3.033891 -2.89278,0 -2.89278,-3.033891 V 49.191382 h -29.84502 v 20.178902 q 0,3.033891 -2.89278,3.033891 z"
         style="font-style:normal;font-variant:normal;font-weight:normal;font-stretch:normal;font-size:70.5556px;font-family:Nunito;-inkscape-font-specification:Nunito;fill:#05688b;fill-opacity:1;stroke-width:0.264999;stroke-miterlimit:4;stroke-dasharray:none"
         id="path876" />
    </g>
  </g>
  <g
     inkscape:groupmode="layer"
     id="layer2"
     inkscape:label="Lås" />
</svg>
